<svg width="25" height="29" viewBox="0 0 25 29" fill="none" xmlns="http://www.w3.org/2000/svg">
<path d="M17.7625 12.7861V15.4647C17.7625 17.1223 17.2135 18.712 16.2362 19.8841C15.259 21.0562 13.9335 21.7147 12.5515 21.7147C11.1694 21.7147 9.84397 21.0562 8.86671 19.8841C7.88945 18.712 7.34043 17.1223 7.34043 15.4647V12.7861H5.85156V15.4647C5.85234 17.4407 6.4601 19.347 7.55871 20.8195C8.65732 22.2919 10.1698 23.2273 11.807 23.4468V25.2861H8.8293V27.0718H16.2736V25.2861H13.2959V23.4468C14.9332 23.2273 16.4456 22.2919 17.5442 20.8195C18.6428 19.347 19.2506 17.4407 19.2514 15.4647V12.7861H17.7625Z" fill="#959595"/>
<path d="M12.5522 19.9294C13.5394 19.9294 14.4862 19.4591 15.1842 18.6219C15.8823 17.7846 16.2744 16.6491 16.2744 15.4651V6.53655C16.2744 5.35255 15.8823 4.21704 15.1842 3.37982C14.4862 2.54261 13.5394 2.07227 12.5522 2.07227C11.5651 2.07227 10.6183 2.54261 9.92028 3.37982C9.22223 4.21704 8.83008 5.35255 8.83008 6.53655V15.4651C8.83008 16.6491 9.22223 17.7846 9.92028 18.6219C10.6183 19.4591 11.5651 19.9294 12.5522 19.9294Z" fill="#959595"/>
</svg>
